<?xml version="1.0" encoding="iso-8859-1"?>
<!-- Generator: Adobe Illustrator 19.0.0, SVG Export Plug-In . SVG Version: 6.00 Build 0)  -->
<svg version="1.1" id="Capa_1" xmlns="http://www.w3.org/2000/svg" xmlns:xlink="http://www.w3.org/1999/xlink" x="0px" y="0px"
	 viewBox="0 0 480 480" style="enable-background:new 0 0 480 480;" xml:space="preserve">
<path style="fill:#E9686A;" d="M408,296H72c-35.346,0-64-28.654-64-64v-80h408l56,56v24C472,267.346,443.346,296,408,296z"/>
<path style="fill:#B11E48;" d="M112,152H8V48h40L112,152z"/>
<g>
	<path style="fill:#FDBD40;" d="M216,456h-64V248h160L216,456z"/>
	<path style="fill:#FDBD40;" d="M216,24h-64v128h144L216,24z"/>
</g>
<g>
	<path style="fill:#F4F4E6;" d="M88,184h64v32H88V184z"/>
	<path style="fill:#F4F4E6;" d="M184,184h64v32h-64V184z"/>
	<path style="fill:#F4F4E6;" d="M280,184h64v32h-64V184z"/>
	<path style="fill:#F4F4E6;" d="M392,216h80v-8l-24-24h-56V216z"/>
</g>
<g>
	<path style="fill:#AABECE;" d="M64,24h64v16H64V24z"/>
	<path style="fill:#AABECE;" d="M96,56h32v16H96V56z"/>
	<path style="fill:#AABECE;" d="M64,400h64v16H64V400z"/>
	<path style="fill:#AABECE;" d="M96,432h32v16H96V432z"/>
</g>
<path d="M152,176H88c-4.418,0-8,3.582-8,8v32c0,4.418,3.582,8,8,8h64c4.418,0,8-3.582,8-8v-32C160,179.582,156.418,176,152,176z
	 M144,208H96v-16h48V208z"/>
<path d="M248,176h-64c-4.418,0-8,3.582-8,8v32c0,4.418,3.582,8,8,8h64c4.418,0,8-3.582,8-8v-32C256,179.582,252.418,176,248,176z
	 M240,208h-48v-16h48V208z"/>
<path d="M344,176h-64c-4.418,0-8,3.582-8,8v32c0,4.418,3.582,8,8,8h64c4.418,0,8-3.582,8-8v-32C352,179.582,348.418,176,344,176z
	 M336,208h-48v-16h48V208z"/>
<path d="M477.656,202.344l-56-56c-1.5-1.5-3.534-2.344-5.656-2.344H300.432L222.784,19.76C221.322,17.421,218.758,16,216,16h-64
	c-4.418,0-8,3.582-8,8v120h-27.528L54.816,43.808C53.36,41.441,50.779,39.999,48,40H8c-4.418,0-8,3.582-8,8v184
	c0.044,39.746,32.254,71.956,72,72h72v152c0,4.418,3.582,8,8,8h64c3.121,0,5.956-1.815,7.264-4.648L294.968,304H408
	c39.746-0.044,71.956-32.254,72-72v-24C480,205.878,479.156,203.844,477.656,202.344z M460.688,208H400v-16h44.688L460.688,208z
	 M160,32h51.56l70.04,112H160V32z M16,56h27.528l54.152,88H16V56z M210.88,448H160V256h139.496L210.88,448z M408,288H302.352
	l16.912-36.648c1.851-4.012,0.1-8.765-3.912-10.616C314.301,240.251,313.157,240,312,240H152c-4.418,0-8,3.582-8,8v40H72
	c-30.913-0.035-55.965-25.087-56-56v-72h396.688l16,16H392c-4.418,0-8,3.582-8,8v32c0,4.418,3.582,8,8,8h72v8
	C463.965,262.913,438.913,287.965,408,288L408,288z"/>
<path d="M64,24h64v16H64V24z"/>
<path d="M96,56h32v16H96V56z"/>
<path d="M64,400h64v16H64V400z"/>
<path d="M96,432h32v16H96V432z"/>
<g>
</g>
<g>
</g>
<g>
</g>
<g>
</g>
<g>
</g>
<g>
</g>
<g>
</g>
<g>
</g>
<g>
</g>
<g>
</g>
<g>
</g>
<g>
</g>
<g>
</g>
<g>
</g>
<g>
</g>
</svg>
